<?xml version="1.0" encoding="UTF-8"?>
<svg version="1.1" xmlns="http://www.w3.org/2000/svg" width="35" height="32">
<path d="M0 0 C2.00720923 0.28674418 4.0085944 0.61866701 6 1 C7.59789351 5.95346987 6.28306814 10.13282415 5 15 C5.99 13.68 6.98 12.36 8 11 C10.97 11.495 10.97 11.495 14 12 C14.84098656 16.01804691 15.05404945 19.01803543 14 23 C14.804375 23.144375 15.60875 23.28875 16.4375 23.4375 C19 24 19 24 20 25 C20.1875 27.4375 20.1875 27.4375 20 30 C19.34 30.66 18.68 31.32 18 32 C14.875 31.625 14.875 31.625 12 31 C11.67 28.69 11.34 26.38 11 24 C10.46375 25.134375 9.9275 26.26875 9.375 27.4375 C7.66583161 30.45296138 7.33108105 30.88743244 3.875 32.0625 C1 32 1 32 -1 30 C-0.9765625 27.1796875 -0.9765625 27.1796875 -0.625 23.875 C-0.51414062 22.77929688 -0.40328125 21.68359375 -0.2890625 20.5546875 C-0.14597656 19.29011719 -0.14597656 19.29011719 0 18 C-0.51949219 18.92683594 -1.03898438 19.85367187 -1.57421875 20.80859375 C-2.27778603 22.01872946 -2.98226091 23.22833782 -3.6875 24.4375 C-4.02716797 25.04916016 -4.36683594 25.66082031 -4.71679688 26.29101562 C-6.41928474 29.17092501 -7.48005753 30.79647747 -10.64453125 32.03515625 C-13 32 -13 32 -15 30 C-15.07658431 22.85851272 -11.13919937 17.53580152 -7.5 11.625 C-6.89285156 10.61566406 -6.28570312 9.60632813 -5.66015625 8.56640625 C-1.22169962 1.22169962 -1.22169962 1.22169962 0 0 Z M1 14 C2 16 2 16 2 16 Z M3 17 C4 19 4 19 4 19 Z " fill="#625AFF" transform="translate(15,0)"/>
</svg>
